<svg width="15" height="18" viewBox="0 0 15 18" fill="none" xmlns="http://www.w3.org/2000/svg">
<g clip-path="url(#clip0_2_382)">
<g clip-path="url(#clip1_2_382)">
<path d="M7.65993 1.82313e-08C6.27539 -9.98853e-05 4.92191 0.410389 3.77068 1.17955C2.61944 1.94871 1.72215 3.042 1.1923 4.32115C0.662443 5.60029 0.523819 7.00784 0.793958 8.36577C1.0641 9.72371 1.73086 10.971 2.70993 11.95C3.97993 13.22 6.95993 15.05 7.12993 16.98C7.15993 17.26 7.36993 17.5 7.65993 17.5C7.94993 17.5 8.15993 17.26 8.18993 16.98C8.35993 15.05 11.3399 13.22 12.6099 11.95C13.589 10.971 14.2558 9.72371 14.5259 8.36577C14.796 7.00784 14.6574 5.60029 14.1276 4.32115C13.5977 3.042 12.7004 1.94871 11.5492 1.17955C10.398 0.410389 9.04447 -9.98853e-05 7.65993 1.82313e-08Z" fill="#FF4433"/>
<path d="M7.65996 9.45005C7.9817 9.45005 8.30029 9.38668 8.59754 9.26355C8.89478 9.14043 9.16487 8.95996 9.39237 8.73246C9.61988 8.50496 9.80034 8.23487 9.92347 7.93762C10.0466 7.64038 10.11 7.32179 10.11 7.00005C10.11 6.67831 10.0466 6.35972 9.92347 6.06247C9.80034 5.76523 9.61988 5.49514 9.39237 5.26764C9.16487 5.04013 8.89478 4.85967 8.59754 4.73654C8.30029 4.61342 7.9817 4.55005 7.65996 4.55005C7.01018 4.55005 6.38701 4.80817 5.92755 5.26764C5.46809 5.7271 5.20996 6.35027 5.20996 7.00005C5.20996 7.64983 5.46809 8.273 5.92755 8.73246C6.38701 9.19192 7.01018 9.45005 7.65996 9.45005Z" fill="white"/>
</g>
</g>
<defs>
<clipPath id="clip0_2_382">
<rect width="14" height="18" fill="white" transform="translate(0.659912)"/>
</clipPath>
<clipPath id="clip1_2_382">
<rect width="14" height="18" fill="white" transform="translate(0.659912)"/>
</clipPath>
</defs>
</svg>
