<svg width="19" height="18" viewBox="0 0 19 18" fill="none" xmlns="http://www.w3.org/2000/svg">
<g clip-path="url(#clip0_2_396)">
<path d="M5.15991 1C4.23165 1 3.34142 1.36875 2.68504 2.02513C2.02866 2.6815 1.65991 3.57174 1.65991 4.5V9H17.6599V4.5C17.6599 3.57174 17.2912 2.6815 16.6348 2.02513C15.9784 1.36875 15.0882 1 14.1599 1H5.15991Z" fill="#FFCC00"/>
<path d="M1.65991 9V13.5C1.65991 14.4283 2.02866 15.3185 2.68504 15.9749C3.34142 16.6313 4.23165 17 5.15991 17H9.65991V9H1.65991Z" fill="#E6E6E6"/>
<path d="M9.65991 9V17H14.1599C15.0882 17 15.9784 16.6313 16.6348 15.9749C17.2912 15.3185 17.6599 14.4283 17.6599 13.5V9H9.65991Z" fill="black"/>
</g>
<defs>
<clipPath id="clip0_2_396">
<rect width="18" height="18" fill="white" transform="translate(0.659912)"/>
</clipPath>
</defs>
</svg>
