<svg width="27" height="26" viewBox="0 0 27 26" fill="none" xmlns="http://www.w3.org/2000/svg">
<g clip-path="url(#clip0_2_283)">
<path fill-rule="evenodd" clip-rule="evenodd" d="M20.6499 14.5L23.6499 16L13.6499 21L3.6499 16L6.6499 14.5L8.1499 15.25L6.6499 16L13.6499 19.5L20.6499 16L19.1499 15.25L20.6499 14.5Z" fill="#333333"/>
<path fill-rule="evenodd" clip-rule="evenodd" d="M20.6499 11.5L23.6499 13L13.6499 18L3.6499 13L6.6499 11.5L8.1499 12.25L6.6499 13L13.6499 16.5L20.6499 13L19.1499 12.25L20.6499 11.5Z" fill="#4C4C4C"/>
<path fill-rule="evenodd" clip-rule="evenodd" d="M13.6499 15L23.6499 10L13.6499 5L3.6499 10L13.6499 15ZM13.6499 13.5L20.6499 10L13.6499 6.5L6.6499 10L13.6499 13.5Z" fill="#666666"/>
</g>
<defs>
<clipPath id="clip0_2_283">
<rect width="26" height="26" fill="white" transform="translate(0.649902)"/>
</clipPath>
</defs>
</svg>
