<svg width="50" height="50" viewBox="0 0 50 50" fill="none" xmlns="http://www.w3.org/2000/svg">
<rect width="50" height="50" fill="#EEEEE8"/>
<g clip-path="url(#clip0_1_480)">
<path d="M30.7005 30.7459C30.4145 27.9639 29.0667 25.2433 26.9067 23.0833C22.4082 18.5887 15.7402 17.9398 12.0424 21.6434C8.34262 25.3431 8.98772 32.0112 13.4843 36.5077C15.6442 38.6677 18.3648 40.0155 21.1468 40.3035C21.5174 40.3399 21.8841 40.3591 22.2431 40.3591C24.6354 40.3591 26.7723 39.5201 28.3467 37.9457C30.1591 36.1352 30.9962 33.5778 30.7005 30.7459ZM24.1208 33.0287C22.6463 31.9036 21.0508 31.4582 19.3152 30.984C14.9492 29.7859 12.7816 26.1438 12.2728 21.8738C13.5035 23.3579 14.4116 25.0513 15.9226 26.2935C17.5315 27.6164 19.3017 28.0983 21.2486 28.6627C25.5205 29.903 27.6324 33.5145 28.1201 37.7173C26.7857 36.1141 25.8066 34.317 24.1208 33.0287Z" fill="#3780FF"/>
<path d="M37.958 12.0437C34.2602 8.34202 27.5921 8.98905 23.0937 13.4837C21.8956 14.6817 20.9779 16.0603 20.3232 17.5175C22.4735 17.8881 24.5567 18.7866 26.4037 20.1363C27.1064 19.6947 27.8725 19.3165 28.7537 19.0611C30.6986 18.4967 32.4708 18.0167 34.0797 16.6919C35.5888 15.4497 36.4969 13.7544 37.7295 12.2722C37.2227 16.5422 35.0531 20.1843 30.6871 21.3824C29.9499 21.584 29.2433 21.7913 28.554 22.0371C30.6353 24.2297 32.0061 26.9003 32.4842 29.6785C33.9414 29.0219 35.3219 28.1061 36.52 26.908C41.0107 22.4115 41.6578 15.7435 37.958 12.0437Z" fill="#3780FF"/>
</g>
<defs>
<clipPath id="clip0_1_480">
<rect width="30.72" height="30.72" fill="white" transform="translate(9.64001 9.63989)"/>
</clipPath>
</defs>
</svg>
