<svg width="27" height="26" viewBox="0 0 27 26" fill="none" xmlns="http://www.w3.org/2000/svg">
<g clip-path="url(#clip0_2_268)">
<path fill-rule="evenodd" clip-rule="evenodd" d="M5.61963 12.2C5.81963 13.24 6.71963 13.84 8.55963 13.84C9.55963 13.25 9.55963 7.78 12.3596 6.62C12.7596 6.45 13.1396 6.32 13.5296 6.2C13.6982 6.15294 13.865 6.09957 14.0296 6.04C14.0296 6.04 13.4196 6 12.7296 6H12.5496C11.9296 6 11.7496 6.08 11.0996 6.15C9.93848 6.30104 8.83995 6.76388 7.92082 7.48933C7.00169 8.21477 6.2963 9.17571 5.87963 10.27C5.75963 10.63 5.67963 10.97 5.62963 11.27V12.19L5.61963 12.2Z" fill="#999898"/>
<path fill-rule="evenodd" clip-rule="evenodd" d="M14.9795 20.03C16.7668 19.8455 18.4149 18.9817 19.5837 17.6171C20.7525 16.2524 21.3526 14.491 21.2602 12.6966C21.1678 10.9023 20.39 9.21186 19.0872 7.97445C17.7844 6.73705 16.0563 6.04712 14.2595 6.04712C12.4628 6.04712 10.7346 6.73705 9.43183 7.97445C8.12907 9.21186 7.35119 10.9023 7.25879 12.6966C7.1664 14.491 7.76654 16.2524 8.93532 17.6171C10.1041 18.9817 11.7523 19.8455 13.5395 20.03H14.9795Z" fill="#BFBFBF"/>
<path fill-rule="evenodd" clip-rule="evenodd" d="M13.3797 5.96997L14.2797 5.98997C15.2438 6.001 16.1954 6.2094 17.0759 6.60232C17.9564 6.99523 18.7471 7.56434 19.3992 8.27454C20.0513 8.98475 20.5511 9.821 20.8676 10.7317C21.1841 11.6425 21.3108 12.6084 21.2397 13.57C20.2197 13.49 18.8097 12.15 18.4797 11.07C18.0718 9.64076 17.2145 8.38086 16.0349 7.47675C14.8552 6.57264 13.4158 6.07237 11.9297 6.04997C12.5297 5.98997 12.9797 5.96997 13.3797 5.96997Z" fill="#242726"/>
</g>
<defs>
<clipPath id="clip0_2_268">
<rect width="16" height="18" fill="white" transform="translate(5.44971 4)"/>
</clipPath>
</defs>
</svg>
