<svg width="121" height="120" viewBox="0 0 121 120" fill="none" xmlns="http://www.w3.org/2000/svg">
<mask id="mask0_2_218" style="mask-type:alpha" maskUnits="userSpaceOnUse" x="0" y="0" width="121" height="120">
<g clip-path="url(#clip0_2_218)">
<g clip-path="url(#clip1_2_218)">
<path d="M34.0824 1.72841C34.8505 1.17588 34.4477 0 33.5015 0H1.31006C0.757774 0 0.310059 0.447715 0.310059 1V7.64244C0.310059 8.17949 0.734252 8.62064 1.27088 8.64168L10.335 8.99707C15.3348 8.99268 19.5866 8.53369 23.7514 7.16016C27.0309 6.07854 30.3888 4.38528 34.0824 1.72841Z" fill="#2F2641"/>
<path d="M1.34926 16.6505C0.782038 16.6283 0.310059 17.0821 0.310059 17.6498V18.035C0.310059 18.5512 0.703052 18.9816 1.21623 19.0368C5.78291 19.5282 9.68327 20.4502 13.4015 22.1073C17.8348 24.0834 21.7502 26.9901 26.1101 30.9652L26.1268 30.9804C26.1503 31.0023 26.1885 30.9839 26.1862 30.9519C25.9186 27.2507 26.1723 23.5388 26.8125 20.0316C27.1191 18.3523 27.5205 16.6862 28.0097 15.059C28.1363 14.6379 27.7211 14.2455 27.3075 14.3949C26.9579 14.5209 26.6078 14.6415 26.2571 14.7572C20.9761 16.4989 15.7768 16.997 10.2574 16.997H10.1791L1.34926 16.6505Z" fill="#2F2641"/>
<path d="M1.41487 27.1153C0.825437 27.0396 0.310059 27.5039 0.310059 28.0981V87.5007C0.310059 88.3916 1.3872 88.8378 2.01716 88.2078L33.4966 56.7286C33.7291 56.4962 33.8315 56.1644 33.7768 55.8402C33.4742 54.046 33.3101 52.2364 33.3101 50.4203C33.3101 50.0434 33.3177 49.6684 33.3328 49.2953L33.3487 48.9555C33.3604 48.7542 33.2817 48.5581 33.1339 48.4209L27.5545 43.2382C25.4627 41.2934 23.7463 39.6957 22.5527 38.5844L20.7041 36.8622C16.6575 33.1747 13.4717 30.8974 10.1445 29.414C7.63021 28.2934 4.88613 27.5609 1.41487 27.1153Z" fill="#2F2641"/>
<path d="M37.0842 66.4218C36.7936 65.7708 35.9379 65.601 35.4338 66.1051L0.602951 100.936C0.415415 101.124 0.310059 101.378 0.310059 101.643V107.501C0.310059 108.392 1.3872 108.838 2.01717 108.208L38.7871 71.4377C39.1013 71.1235 39.1698 70.6402 38.9607 70.2482C38.2917 68.9939 37.6625 67.7171 37.0842 66.4218Z" fill="#2F2641"/>
<path d="M3.95318 120C3.06227 120 2.61611 118.923 3.24607 118.293L42.7976 78.7414C43.2395 78.2996 43.9738 78.3671 44.3346 78.8773C48.4283 84.6659 52.8578 89.6237 56.0917 93.2433C57.5357 94.8595 58.7413 96.2091 59.5722 97.2467C60.2072 98.0401 61.413 98.0401 62.048 97.2467C62.8789 96.2091 64.0845 94.8595 65.5285 93.2433L65.5384 93.2315C67.4968 91.0402 69.8926 88.3581 72.3864 85.2986C72.6122 85.0215 73.0231 84.9858 73.292 85.2213C73.5274 85.4269 73.75 85.6207 73.9595 85.8014C74.2625 86.0626 74.569 86.318 74.8788 86.567C75.1911 86.818 75.5066 87.0626 75.8255 87.3004C85.7444 96.7304 86.5127 109.123 86.4156 119.015C86.4102 119.562 85.9646 120 85.4181 120H3.95318Z" fill="#2F2641"/>
<path d="M78.1385 77.6512C77.8514 78.0707 77.9188 78.6395 78.3012 78.9746C78.619 79.2532 78.9148 79.5107 79.1869 79.7455C88.0081 87.3598 101.068 88.1518 111.816 81.4096C114.088 79.9843 116.887 77.9382 119.927 75.5601C120.169 75.3711 120.31 75.081 120.31 74.7742V3.64312C120.31 2.75221 119.233 2.30605 118.603 2.93601L85.244 36.295C84.9248 36.6142 84.8607 37.1068 85.0741 37.5046C87.1392 41.3535 88.3101 45.7507 88.3101 50.4203C88.3101 60.1178 83.6341 69.6208 78.1385 77.6512Z" fill="#2F2641"/>
<path d="M107.811 0C108.702 0 109.148 1.07714 108.518 1.70711L80.4038 29.8216C80.0211 30.2043 79.4047 30.2116 78.9984 29.8541C78.011 28.9852 76.9605 28.1861 75.8546 27.4642C75.3068 27.1066 75.2074 26.3318 75.6701 25.8691L101.246 0.292895C101.434 0.105357 101.688 0 101.953 0H107.811Z" fill="#2F2641"/>
<path d="M66.0806 23.5032C66.4136 23.5676 66.7585 23.467 66.9983 23.2272L88.5185 1.70711C89.1484 1.07714 88.7023 0 87.8114 0H49.0685C48.8241 0 48.5882 0.0895927 48.4051 0.251465C46.486 1.94819 44.6183 3.55901 42.8586 5.02156C42.8486 5.02988 42.8473 5.04473 42.8557 5.0547C42.864 5.06466 42.8629 5.07935 42.8529 5.0877C39.3081 8.05335 36.0123 14.1846 34.6827 21.4683C33.752 26.5671 33.8631 31.8112 35.2577 36.4417C35.5076 37.2717 36.627 37.3253 37.0661 36.5779C41.8387 28.4555 50.6835 23 60.8086 23C62.6117 23 64.3744 23.1729 66.0806 23.5032Z" fill="#2F2641"/>
<path d="M92.4468 118.984C92.4402 119.543 92.8904 120 93.4498 120H119.31C119.862 120 120.31 119.552 120.31 119V87.2547C120.31 86.4383 119.383 85.9642 118.713 86.4303C117.784 87.0765 116.898 87.6659 116.067 88.1871C107.879 93.3234 98.4048 95.0669 89.6042 93.3716C88.7539 93.2078 88.0346 94.109 88.3871 94.9C92.1397 103.321 92.5276 112.146 92.4468 118.984Z" fill="#2F2641"/>
<path d="M65.3023 38.1456C72.0877 40.6275 75.5765 48.1402 73.0948 54.9254C70.613 61.711 63.1004 65.1998 56.315 62.7179C49.5296 60.2359 46.0409 52.7237 48.5227 45.9381C51.0044 39.1529 58.5169 35.6642 65.3023 38.1456Z" fill="#2F2641"/>
</g>
</g>
</mask>
<g mask="url(#mask0_2_218)">
<rect x="0.310059" width="120" height="120" fill="black" fill-opacity="0.1"/>
</g>
<defs>
<clipPath id="clip0_2_218">
<rect width="120" height="120" fill="white" transform="translate(0.310059)"/>
</clipPath>
<clipPath id="clip1_2_218">
<rect width="120" height="120" fill="white" transform="translate(0.310059)"/>
</clipPath>
</defs>
</svg>
