<svg width="80" height="81" viewBox="0 0 80 81" fill="none" xmlns="http://www.w3.org/2000/svg">
<g clip-path="url(#clip0_1_618)">
<g clip-path="url(#clip1_1_618)">
<g clip-path="url(#clip2_1_618)">
<path d="M35.9706 77.8333H10.6666C9.93027 77.8333 9.33331 78.4303 9.33331 79.1667C9.33331 79.903 9.93027 80.5 10.6666 80.5H69.3333C70.0697 80.5 70.6666 79.903 70.6666 79.1667C70.6666 78.4303 70.0697 77.8333 69.3333 77.8333H44.0293C51.832 71.6427 70.6666 54.1787 70.6666 29.8333C70.6666 13.6587 56.9093 0.5 40 0.5C23.0906 0.5 9.33331 13.6587 9.33331 29.8333C9.33331 54.1787 28.168 71.6427 35.9706 77.8333ZM12 29.8333C12 15.1293 24.56 3.16667 40 3.16667C55.44 3.16667 68 15.1293 68 29.8333C68 55.8333 44.5133 74.2333 40 77.5307C35.4866 74.2333 12 55.8333 12 29.8333Z" fill="#3780FF"/>
<path d="M5.33333 80.4999C6.06971 80.4999 6.66667 79.903 6.66667 79.1666C6.66667 78.4302 6.06971 77.8333 5.33333 77.8333H1.33333C0.596954 77.8333 0 78.4302 0 79.1666C0 79.903 0.596954 80.4999 1.33333 80.4999H5.33333Z" fill="#3780FF"/>
<path d="M78.6666 80.4999C79.403 80.4999 80 79.903 80 79.1666C80 78.4302 79.403 77.8333 78.6666 77.8333H74.6666C73.9303 77.8333 73.3333 78.4302 73.3333 79.1666C73.3333 79.903 73.9303 80.4999 74.6666 80.4999H78.6666Z" fill="#3780FF"/>
<path d="M45.3333 55.1667C49.987 55.1588 53.9249 51.7264 54.568 47.1173C59.932 46.6973 61.284 43.4933 62.1866 40.216C62.514 39.0119 62.2607 37.7241 61.5017 36.7337C60.7428 35.7432 59.5651 35.1637 58.3173 35.1667H54.6666C54.6666 33.6939 53.4727 32.5 52 32.5H28C26.5272 32.5 25.3333 33.6939 25.3333 35.1667V45.8333C25.3392 50.9856 29.5144 55.1608 34.6666 55.1667H45.3333ZM58.3173 37.8333C58.7367 37.8346 59.1314 38.0319 59.384 38.3667C59.6342 38.6901 59.7177 39.1124 59.6093 39.5067C58.7786 42.5267 57.948 44.1227 54.66 44.44V37.8333H58.3173ZM28 45.8333V41.8333H32C32.7364 41.8333 33.3333 41.2364 33.3333 40.5C33.3333 39.7636 32.7364 39.1667 32 39.1667H28V35.1667H52V39.1667H37.3333C36.5969 39.1667 36 39.7636 36 40.5C36 41.2364 36.5969 41.8333 37.3333 41.8333H52V45.8333C51.9956 49.5134 49.0134 52.4956 45.3333 52.5H34.6666C30.9866 52.4956 28.0044 49.5134 28 45.8333Z" fill="#3780FF"/>
<path d="M31.0986 23.7387C30.0099 24.5454 29.3577 25.812 29.3333 27.1667C29.3333 27.9031 29.9303 28.5001 30.6666 28.5001C31.403 28.5001 32 27.9031 32 27.1667C32 26.5547 32.2666 26.2907 32.9013 25.7001C34.0092 24.9099 34.6669 23.6329 34.6669 22.2721C34.6669 20.9112 34.0092 19.6343 32.9013 18.8441C32.26 18.2561 32 17.9934 32 17.3774C32 16.7614 32.2666 16.5054 32.9 15.9187C33.9869 15.1146 34.6395 13.8519 34.6666 12.5001C34.6666 11.7637 34.0697 11.1667 33.3333 11.1667C32.5969 11.1667 32 11.7637 32 12.5001C32 13.1107 31.7333 13.3721 31.1 13.9587C29.9921 14.7484 29.3344 16.0249 29.3344 17.3854C29.3344 18.7459 29.9921 20.0224 31.1 20.8121C31.7413 21.4001 32.0013 21.6641 32.0013 22.2787C32.0013 22.8934 31.74 23.1507 31.0986 23.7387Z" fill="#3780FF"/>
<path d="M39.0986 23.7387C38.0099 24.5454 37.3577 25.812 37.3333 27.1667C37.3333 27.9031 37.9303 28.5001 38.6666 28.5001C39.403 28.5001 40 27.9031 40 27.1667C40 26.5547 40.2666 26.2907 40.9013 25.7001C42.0092 24.9099 42.6669 23.6329 42.6669 22.2721C42.6669 20.9112 42.0092 19.6343 40.9013 18.8441C40.26 18.2561 40 17.9934 40 17.3774C40 16.7614 40.2666 16.5054 40.9 15.9187C41.9869 15.1146 42.6395 13.8519 42.6666 12.5001C42.6666 11.7637 42.0697 11.1667 41.3333 11.1667C40.5969 11.1667 40 11.7637 40 12.5001C40 13.1107 39.7333 13.3721 39.1 13.9587C37.9921 14.7484 37.3344 16.0249 37.3344 17.3854C37.3344 18.7459 37.9921 20.0224 39.1 20.8121C39.7413 21.4001 40.0013 21.6641 40.0013 22.2787C40.0013 22.8934 39.74 23.1507 39.0986 23.7387Z" fill="#3780FF"/>
<path d="M47.0986 23.7387C46.0099 24.5454 45.3577 25.812 45.3333 27.1667C45.3333 27.9031 45.9303 28.5001 46.6666 28.5001C47.403 28.5001 48 27.9031 48 27.1667C48 26.5547 48.2666 26.2907 48.9013 25.7001C50.0092 24.9099 50.6669 23.6329 50.6669 22.2721C50.6669 20.9112 50.0092 19.6343 48.9013 18.8441C48.26 18.2561 48 17.9934 48 17.3774C48 16.7614 48.2666 16.5054 48.9 15.9187C49.9869 15.1146 50.6395 13.8519 50.6666 12.5001C50.6666 11.7637 50.0697 11.1667 49.3333 11.1667C48.5969 11.1667 48 11.7637 48 12.5001C48 13.1107 47.7333 13.3721 47.1 13.9587C45.9921 14.7484 45.3344 16.0249 45.3344 17.3854C45.3344 18.7459 45.9921 20.0224 47.1 20.8121C47.7413 21.4001 48.0013 21.6641 48.0013 22.2787C48.0013 22.8934 47.74 23.1507 47.0986 23.7387Z" fill="#3780FF"/>
<path d="M39.1334 70.0334C39.6323 70.4602 40.3677 70.4602 40.8667 70.0334C43.9687 67.3702 46.8616 64.4728 49.52 61.3668C49.8583 60.9712 49.9356 60.415 49.7178 59.9423C49.5001 59.4695 49.0272 59.1667 48.5067 59.1667H31.4934C30.9729 59.1667 30.5 59.4695 30.2822 59.9423C30.0645 60.415 30.1417 60.9712 30.48 61.3668C33.1384 64.4728 36.0314 67.3702 39.1334 70.0334ZM45.5334 61.8334C43.7808 63.7316 41.934 65.5405 40 67.2534C38.0651 65.5406 36.2175 63.7316 34.464 61.8334H45.5334Z" fill="#3780FF"/>
</g>
</g>
</g>
<defs>
<clipPath id="clip0_1_618">
<rect width="80" height="80" fill="white" transform="translate(0 0.5)"/>
</clipPath>
<clipPath id="clip1_1_618">
<rect width="80" height="80" fill="white" transform="translate(0 0.5)"/>
</clipPath>
<clipPath id="clip2_1_618">
<rect width="80" height="80" fill="white" transform="translate(0 0.5)"/>
</clipPath>
</defs>
</svg>
