<svg width="80" height="81" viewBox="0 0 80 81" fill="none" xmlns="http://www.w3.org/2000/svg">
<g clip-path="url(#clip0_1_567)">
<g clip-path="url(#clip1_1_567)">
<g clip-path="url(#clip2_1_567)">
<path d="M68.4107 14.3267C70.0893 12.5427 74.7333 7.29067 74.7267 3.75067C74.7511 2.8785 74.42 2.03386 73.8093 1.41067C71.6507 -0.750667 67.1427 1.528 63.4013 4.56C57.984 2.00933 49.34 0.5 40 0.5C30.66 0.5 22.016 2.00933 16.5987 4.56C12.86 1.52933 8.352 -0.750667 6.19467 1.40667C5.58473 2.02752 5.25399 2.87002 5.27867 3.74C5.27867 7.29467 9.91467 12.5467 11.5907 14.3293C6.768 28.6133 6.768 52.5307 11.5907 66.6733C9.90933 68.456 5.26667 73.7 5.27333 77.248C5.24837 78.1207 5.57953 78.9659 6.19067 79.5893C8.34667 81.748 12.8573 79.4707 16.5987 76.44C22.016 78.9907 30.6667 80.5 40 80.5C49.3333 80.5 57.984 78.9907 63.4013 76.44C67.1347 79.4693 71.6467 81.7467 73.8013 79.592C74.4104 78.9713 74.7407 78.1293 74.716 77.26C74.7227 73.7013 70.084 68.46 68.4067 66.6733C73.0733 52.9573 73.24 29.656 68.6947 15.2067C68.6067 14.9093 68.5093 14.616 68.4107 14.3267ZM65.628 66.5507C65.4504 67.038 65.5716 67.5842 65.9387 67.9507C68.408 70.416 72.0587 75.0773 72.0547 77.256C72.0547 77.576 71.9627 77.6667 71.928 77.7C71.6613 77.9747 68.972 77.7 64.4613 73.8427C64.0474 73.4889 63.4599 73.4224 62.9773 73.6747C57.992 76.28 49.4067 77.8333 40 77.8333C30.5933 77.8333 22.008 76.28 17.032 73.6787C16.5494 73.4264 15.962 73.4929 15.548 73.8467C11.0333 77.7053 8.35467 77.98 8.072 77.7C8.036 77.6653 7.93867 77.5667 7.93867 77.244C7.93867 75.0773 11.5893 70.4173 14.0613 67.9507C14.4279 67.5839 14.5486 67.0378 14.3707 66.5507C9.44533 52.9933 9.44667 28.1573 14.3707 14.444C14.5451 13.9583 14.4235 13.4156 14.0587 13.0507C11.592 10.5827 7.94133 5.91733 7.94533 3.74533C7.94533 3.424 8.03733 3.33333 8.07867 3.296C8.34533 3.02133 11.0347 3.296 15.5453 7.15333C15.9593 7.50711 16.5468 7.57362 17.0293 7.32133C22.008 4.72 30.5933 3.16667 40 3.16667C49.4067 3.16667 57.992 4.72 62.968 7.32133C63.4506 7.57362 64.0381 7.50711 64.452 7.15333C68.968 3.29467 71.652 3.02 71.928 3.3C71.964 3.33467 72.0613 3.43333 72.0613 3.75467C72.0613 5.91733 68.4107 10.5813 65.9387 13.0507C65.5743 13.4153 65.4528 13.9574 65.6267 14.4427C65.8067 14.9453 65.9867 15.4627 66.16 16.0067C70.5653 30.0253 70.3173 53.6427 65.628 66.5507Z" fill="#3780FF"/>
<path d="M18.708 15.0881C19.4002 15.3381 20.1641 14.98 20.4147 14.288L21.316 11.7734C26.0972 10.4499 31.0391 9.79698 36 9.83338C36.7364 9.83338 37.3333 9.23643 37.3333 8.50005C37.3333 7.76367 36.7364 7.16672 36 7.16672C30.5535 7.12144 25.1299 7.87616 19.9027 9.40672C19.4991 9.52908 19.1772 9.83515 19.0347 10.232L17.904 13.3827C17.6552 14.0756 18.0151 14.8391 18.708 15.0881Z" fill="#3780FF"/>
<path d="M60.496 68.9519C57.216 70.6666 50.1093 72.4999 40 72.4999C29.8907 72.4999 22.784 70.6666 19.504 68.9519C19.0808 68.7169 18.5634 68.7296 18.1524 68.9853C17.7413 69.241 17.5011 69.6994 17.5248 70.1829C17.5486 70.6664 17.8325 71.0991 18.2667 71.3133C21.828 73.1773 29.408 75.1666 40 75.1666C50.592 75.1666 58.172 73.1773 61.7333 71.3133C62.1675 71.0991 62.4515 70.6664 62.4752 70.1829C62.4989 69.6994 62.2587 69.241 61.8477 68.9853C61.4366 68.7296 60.9192 68.7169 60.496 68.9519Z" fill="#3780FF"/>
<path d="M34.7493 57.8054C37.5167 57.8818 40.1998 56.8487 42.2013 54.9361C44.1376 52.9418 45.1826 50.2477 45.0973 47.4694C44.9269 42.9353 42.9818 38.6496 39.6813 35.5361C33.644 29.4974 24.92 28.3667 20.2293 33.0254C18.291 35.0216 17.2459 37.719 17.3333 40.5001C17.5043 45.0343 19.4504 49.3196 22.752 52.4321C25.8969 55.7199 30.2023 57.6482 34.7493 57.8054ZM27.6973 32.7921C31.5376 32.9681 35.1594 34.6289 37.7987 37.4241C40.5813 40.0508 42.241 43.6515 42.4307 47.4734C42.4428 48.5219 42.2653 49.564 41.9067 50.5494C40.742 49.8591 39.4359 49.442 38.0867 49.3294C35.0916 49.1737 32.6963 46.7841 32.5333 43.7894C32.201 39.6222 28.8879 36.3152 24.72 35.9907C23.7365 35.9245 22.7811 35.6344 21.9267 35.1427C21.9933 35.0707 22.0413 34.9841 22.1107 34.9147C23.6136 33.4878 25.626 32.7231 27.6973 32.7921ZM20 40.4881C19.9891 39.4391 20.167 38.3967 20.5253 37.4107C21.6897 38.1006 22.9953 38.5177 24.344 38.6307C27.338 38.7871 29.7325 41.1757 29.896 44.1694C30.2301 48.3361 33.5433 51.6419 37.7107 51.9667C38.6942 52.0321 39.6497 52.3217 40.504 52.8134C40.4373 52.8854 40.3893 52.9734 40.3187 53.0427C36.6733 56.6627 29.6373 55.5374 24.636 50.5334C21.8528 47.9083 20.1918 44.3091 20 40.4881Z" fill="#3780FF"/>
<path d="M51.2 22.0999C50.4123 21.9228 49.6074 21.8334 48.8 21.8333C44.3213 21.8479 40.1093 24.6599 37.532 29.3586C37.1978 30.0021 37.439 30.7947 38.0751 31.1428C38.7111 31.4909 39.5088 31.2669 39.8707 30.6386C42.004 26.7493 45.2627 24.5119 48.804 24.5053C49.0173 24.5053 49.2333 24.5146 49.452 24.5333C49.1822 25.7978 48.5912 26.9715 47.736 27.9413C44.5982 31.5921 44.5982 36.9877 47.736 40.6386C48.9239 41.9368 49.5744 43.6377 49.556 45.3973C49.581 47.1505 48.9308 48.8462 47.74 50.1333C46.2564 51.8239 45.4202 53.9857 45.38 56.2346C45.3679 56.752 45.6564 57.2297 46.12 57.4599C46.2111 57.5048 46.3067 57.5397 46.4053 57.5639C47.1915 57.7511 47.9972 57.8433 48.8053 57.8386C56.46 57.8239 62.672 49.7493 62.66 39.8386C62.6813 31.0519 57.8573 23.5933 51.2 22.0999ZM48.8093 55.1666C48.5893 55.1666 48.376 55.1586 48.1667 55.1413C48.4342 53.8747 49.0254 52.6992 49.8827 51.7293C53.0207 48.078 53.0207 42.6819 49.8827 39.0306C48.6944 37.7332 48.0438 36.0325 48.0627 34.2733C48.0377 32.52 48.6879 30.8243 49.8787 29.5373C50.9506 28.2807 51.697 26.7797 52.052 25.1666C56.6827 27.1053 60.0107 33.0893 60 39.8333C60.012 48.2773 54.9907 55.1546 48.8093 55.1666Z" fill="#3780FF"/>
<path d="M41.3333 9.83341C42.0697 9.83341 42.6667 9.23646 42.6667 8.50008C42.6667 7.7637 42.0697 7.16675 41.3333 7.16675C40.597 7.16675 40 7.7637 40 8.50008C40 9.23646 40.597 9.83341 41.3333 9.83341Z" fill="#3780FF"/>
</g>
</g>
</g>
<defs>
<clipPath id="clip0_1_567">
<rect width="80" height="80" fill="white" transform="translate(0 0.5)"/>
</clipPath>
<clipPath id="clip1_1_567">
<rect width="80" height="80" fill="white" transform="translate(0 0.5)"/>
</clipPath>
<clipPath id="clip2_1_567">
<rect width="80" height="80" fill="white" transform="translate(0 0.5)"/>
</clipPath>
</defs>
</svg>
