<svg width="80" height="81" viewBox="0 0 80 81" fill="none" xmlns="http://www.w3.org/2000/svg">
<g clip-path="url(#clip0_1_517)">
<g clip-path="url(#clip1_1_517)">
<g clip-path="url(#clip2_1_517)">
<path d="M33.3333 70.5C43.452 70.5 51.4533 67.5573 57.116 61.756C58.3257 60.5052 59.4153 59.1437 60.3707 57.6893C61.5207 57.0984 62.7431 56.6605 64.0067 56.3867C64.508 56.2707 65.0427 56.156 65.6067 56.0373C70.864 54.916 78.8067 53.2213 79.8827 45.3467C79.9574 44.7969 79.9948 44.2428 79.9947 43.688C79.9947 43.6733 80.0027 43.6613 80.0027 43.6467V37.5C80.1268 35.0096 79.0011 32.6213 77.0013 31.132C74.1333 29.0587 69.9587 29.1 66.5293 29.924C65.012 19.0533 50.708 10.5 33.3333 10.5C14.9533 10.5 0 20.0707 0 31.8333C0 31.9587 0.012 32.0813 0.0146667 32.2053C-0.141333 39.5173 0.912 52.9 9.55467 61.756C15.2187 67.5573 23.22 70.5 33.3333 70.5ZM55.208 59.8933C50.0693 65.1667 42.7093 67.8333 33.3333 67.8333C23.9573 67.8333 16.6053 65.1667 11.4667 59.8933C6.22533 54.524 4.024 47.2427 3.16667 40.892C8.496 48.1373 20.012 53.1667 33.3333 53.1667C46.6547 53.1667 58.192 48.128 63.5173 40.872C62.6667 47.2027 60.4667 54.5093 55.212 59.8933H55.208ZM77.2333 44.9867C76.4133 51.0027 70.1093 52.348 65.044 53.4293C64.4707 53.552 63.9213 53.668 63.4093 53.7867C63.0827 53.8613 62.7707 53.948 62.4587 54.0347C64.673 49.257 66.0159 44.1221 66.424 38.872C70.1413 37.7973 73.7867 38.064 75.6747 39.62C77.044 40.7453 77.5693 42.5507 77.2373 44.9867H77.2333ZM75.4333 33.2933C76.7345 34.2863 77.4485 35.8673 77.3333 37.5V37.5347C74.4907 35.224 70.22 35.2027 66.6147 36.06C66.6667 34.8293 66.68 33.6853 66.6653 32.6507C70.1547 31.6907 73.5293 31.912 75.4373 33.3L75.4333 33.2933ZM33.3333 13.1667C50.1333 13.1667 63.804 21.4333 63.9907 31.6227V31.6467C63.9907 31.656 63.9907 31.6867 63.9987 31.708V31.8333C63.9987 42.1267 50.2427 50.5 33.332 50.5C16.6147 50.5 2.98667 42.3133 2.68133 32.18C2.68133 32.116 2.68133 32.0467 2.68133 31.98C2.68133 31.956 2.668 31.936 2.668 31.9133C2.668 31.8907 2.668 31.86 2.668 31.8333C2.66667 21.54 16.4227 13.1667 33.3333 13.1667Z" fill="#3780FF"/>
<path d="M33.3333 62.5C25.4533 62.5 19.3773 60.3667 15.276 56.1667C14.7605 55.6394 13.9153 55.6299 13.388 56.1453C12.8608 56.6608 12.8512 57.5061 13.3667 58.0333C18 62.7667 24.7107 65.1667 33.3333 65.1667C34.0697 65.1667 34.6667 64.5697 34.6667 63.8333C34.6667 63.0969 34.0697 62.5 33.3333 62.5Z" fill="#3780FF"/>
<path d="M7.444 37.6746C7.72528 38.0597 8.19067 38.2656 8.66485 38.2145C9.13902 38.1635 9.54996 37.8634 9.74285 37.4272C9.93574 36.991 9.88128 36.4851 9.6 36.0999C8.62283 34.8862 8.06189 33.3903 8 31.8333C8 25.5386 18.8347 18.4999 33.3333 18.4999C39.0341 18.4071 44.6833 19.5916 49.8667 21.9666C50.5266 22.2711 51.3088 21.9909 51.6254 21.3367C51.942 20.6824 51.6763 19.8952 51.028 19.5666C45.4825 17.0167 39.4363 15.7411 33.3333 15.8333C16.584 15.8333 5.33333 24.0999 5.33333 31.8333C5.38839 33.9571 6.12878 36.0061 7.444 37.6746Z" fill="#3780FF"/>
<path d="M58.6667 31.8334C58.6667 38.128 47.832 45.1667 33.3333 45.1667C26.9002 45.3069 20.5422 43.762 14.8907 40.6854C14.4798 40.429 13.9623 40.4156 13.5387 40.6502C13.1152 40.8849 12.8521 41.3308 12.8515 41.815C12.8509 42.2992 13.113 42.7457 13.536 42.9814C19.5979 46.3004 26.4237 47.9733 33.3333 47.8334C50.0827 47.8334 61.3333 39.5667 61.3333 31.8334C61.1966 29.0379 59.9931 26.4013 57.9707 24.4667C57.6455 24.1142 57.156 23.9634 56.6888 24.072C56.2216 24.1805 55.8488 24.5316 55.7123 24.9915C55.5759 25.4513 55.697 25.9489 56.0293 26.2947C57.5785 27.74 58.5212 29.7197 58.6667 31.8334Z" fill="#3780FF"/>
<path d="M33.3333 42.4999C42.3053 42.4999 49.3333 38.3999 49.3333 33.1666C49.3333 32.4302 48.7364 31.8333 48 31.8333C47.2636 31.8333 46.6667 32.4302 46.6667 33.1666C46.6667 36.5559 41.296 39.4519 34.6667 39.7986V37.1026C38.8827 36.7919 41.724 35.0893 42.4493 33.8333C42.7957 33.224 42.5912 32.4496 41.9893 32.0906C41.3697 31.7202 40.5693 31.8899 40.1533 32.4799C38.5923 33.7229 36.662 34.4111 34.6667 34.4359V31.4679C39.9533 29.7599 42.6667 27.6466 42.6667 25.1666C42.6667 22.8866 40.3733 21.1666 37.3333 21.1666C35.9424 21.1419 34.5673 21.4655 33.3333 22.1079C32.0994 21.4655 30.7243 21.1419 29.3333 21.1666C26.2933 21.1666 24 22.8866 24 25.1666C24 27.6466 26.7133 29.7599 32 31.4679V34.4359C30.0124 34.4071 28.0892 33.727 26.5253 32.4999C26.295 32.072 25.8502 31.8033 25.3643 31.7985C24.8783 31.7938 24.4283 32.0537 24.1897 32.4771C23.9511 32.9004 23.9617 33.42 24.2173 33.8333C24.9427 35.0893 27.784 36.7919 32 37.1026V39.7986C25.3707 39.4519 20 36.5559 20 33.1666C20 32.4302 19.403 31.8333 18.6667 31.8333C17.9303 31.8333 17.3333 32.4302 17.3333 33.1666C17.3333 38.3999 24.3613 42.4999 33.3333 42.4999ZM26.6667 25.1666C26.6667 24.6213 27.616 23.8333 29.3333 23.8333C30.4431 23.7736 31.5418 24.0804 32.46 24.7066C32.9643 25.1313 33.7011 25.1313 34.2053 24.7066C35.1234 24.0791 36.223 23.7721 37.3333 23.8333C39.0507 23.8333 40 24.6213 40 25.1666C40 25.8826 38.584 27.4999 33.3333 29.1079C28.084 27.4999 26.6667 25.8826 26.6667 25.1666Z" fill="#3780FF"/>
</g>
</g>
</g>
<defs>
<clipPath id="clip0_1_517">
<rect width="80" height="80" fill="white" transform="translate(0 0.5)"/>
</clipPath>
<clipPath id="clip1_1_517">
<rect width="80" height="80" fill="white" transform="translate(0 0.5)"/>
</clipPath>
<clipPath id="clip2_1_517">
<rect width="80" height="80" fill="white" transform="translate(0 0.5)"/>
</clipPath>
</defs>
</svg>
