<svg width="80" height="81" viewBox="0 0 80 81" fill="none" xmlns="http://www.w3.org/2000/svg">
<g clip-path="url(#clip0_1_468)">
<g clip-path="url(#clip1_1_468)">
<g clip-path="url(#clip2_1_468)">
<path d="M-3.22153e-05 49.8334C-0.0251699 51.8233 1.37121 53.5486 3.32264 53.9387C4.48459 54.136 5.67448 53.8117 6.57562 53.0521C7.47677 52.2925 7.99777 51.1746 7.99997 49.996V31.1574C8.02935 30.6597 8.2835 30.2024 8.69064 29.9147C8.9592 29.7975 9.26389 29.7946 9.53464 29.9067C9.83357 30.0262 10.066 30.2694 10.172 30.5734C12.2665 36.4103 13.3361 42.5654 13.3333 48.7667V71.1667C13.3392 76.3189 17.5144 80.4942 22.6666 80.5H57.3333C62.4855 80.4942 66.6608 76.3189 66.6666 71.1667V48.7667C66.6644 42.5677 67.7335 36.415 69.8266 30.58C69.9297 30.2775 70.1588 30.0343 70.4546 29.9134C70.7486 29.7856 71.0845 29.7969 71.3693 29.944C71.7561 30.1312 72.0013 30.5236 72 30.9534V49.86C71.9739 51.8594 73.3943 53.5858 75.3613 53.9454C76.5188 54.1326 77.7002 53.8025 78.593 53.0424C79.4858 52.2822 80.0002 51.1686 80 49.996V30.9534C79.9947 27.2422 77.7444 23.9032 74.3064 22.5055C70.8685 21.1078 66.9266 21.9293 64.3333 24.584C63.383 25.5778 62.6625 26.768 62.2226 28.0707L60.7066 32.2854C53.988 25.38 54.6386 18.3387 54.64 18.3107C54.6595 18.1524 54.6684 17.9929 54.6666 17.8334V15.6467C54.7755 7.8086 48.8182 1.21438 41.0093 0.529369C36.9493 0.239678 32.9536 1.66379 29.992 4.45604C27.0285 7.23104 25.3427 11.1068 25.3333 15.1667V17.8334C25.3311 17.9728 25.3382 18.1122 25.3546 18.2507C25.3613 18.3214 26.0093 25.3827 19.2826 32.284L17.7773 28.0707C17.3375 26.768 16.6169 25.5778 15.6666 24.584C13.0728 21.9307 9.13167 21.11 5.69434 22.5075C2.25701 23.905 0.00654472 27.2428 -3.22153e-05 30.9534V49.8334ZM6.2413 25.184C8.75974 23.9254 11.803 24.4397 13.768 26.456C14.4449 27.174 14.9564 28.0314 15.2666 28.968L16.7706 33.18C17.0825 34.0478 17.8192 34.6939 18.7203 34.8898C19.6214 35.0858 20.5599 34.804 21.204 34.144C28.7826 26.356 28.0413 18.3134 28.004 17.9747C28.004 17.96 28.004 17.8494 28.004 17.8334V15.1667C28.0121 11.8449 29.3921 8.67399 31.8173 6.40404C34.2404 4.1173 37.5115 2.95165 40.8346 3.1907C47.2436 3.77897 52.1135 9.21177 52 15.6467V17.8334V17.9827C51.964 18.32 51.2 26.3294 58.8 34.144C59.4436 34.8041 60.3818 35.0862 61.2827 34.8905C62.1836 34.6948 62.9202 34.0489 63.232 33.1814L64.7373 28.968C65.0476 28.0314 65.5591 27.174 66.236 26.456C68.2005 24.4389 71.2443 23.9246 73.7626 25.184C75.9582 26.2661 77.3443 28.5057 77.3333 30.9534V49.996C77.3335 50.3894 77.16 50.7628 76.8592 51.0163C76.5584 51.2699 76.161 51.3776 75.7733 51.3107C75.1048 51.1542 74.6409 50.5461 74.6666 49.86V30.9534C74.6707 29.1101 73.346 27.5321 71.53 27.2168C69.7139 26.9015 67.9348 27.9406 67.3173 29.6774C65.1196 35.8017 63.9973 42.26 64 48.7667V71.1667C63.9956 74.8468 61.0134 77.829 57.3333 77.8334H22.6666C18.9866 77.829 16.0044 74.8468 16 71.1667V48.7667C16.0025 42.2586 14.8797 35.799 12.6813 29.6734C12.3328 28.6912 11.5938 27.8967 10.6394 27.478C9.68498 27.0594 8.59996 27.0538 7.6413 27.4627C6.25016 28.1751 5.36337 29.5947 5.3333 31.1574V49.996C5.33217 50.3887 5.15803 50.7609 4.8573 51.0134C4.55582 51.2712 4.15419 51.3795 3.76397 51.308C3.09732 51.1351 2.64081 50.5216 2.66663 49.8334V30.9534C2.65642 28.5048 4.0442 26.265 6.2413 25.184Z" fill="#3780FF"/>
<path d="M57.3333 53.8335H22.6666C21.1938 53.8335 19.9999 55.0274 19.9999 56.5002V64.5002C20.0058 69.6524 24.1811 73.8276 29.3333 73.8335H50.6666C55.8188 73.8276 59.9941 69.6524 59.9999 64.5002V56.5002C59.9999 55.0274 58.806 53.8335 57.3333 53.8335ZM57.3333 64.5002C57.3289 68.1802 54.3467 71.1624 50.6666 71.1668H29.3333C25.6532 71.1624 22.671 68.1802 22.6666 64.5002V56.5002H57.3333V64.5002Z" fill="#3780FF"/>
<path d="M33.4666 32.6333C28.8266 37.2573 27.9853 43.9666 31.5919 47.5853C33.1418 49.074 35.2237 49.8793 37.3719 49.8213C40.8475 49.6996 44.1367 48.2199 46.5333 45.6999C51.1719 41.0759 52.0133 34.3666 48.4066 30.7493C44.7999 27.1319 38.0853 27.9906 33.4666 32.6333ZM35.3519 34.5186C37.2468 32.4989 39.8524 31.2946 42.6186 31.1599C43.9792 31.1266 45.3033 31.6021 46.3319 32.4933C45.8374 32.6971 45.316 32.8283 44.7839 32.8826C41.5294 33.1488 38.9467 35.7332 38.6826 38.9879C38.5865 41.0683 36.9229 42.7337 34.8426 42.8319C33.9395 42.9227 33.0604 43.1766 32.2479 43.5813C31.4506 40.8799 32.5773 37.2759 35.3493 34.5133L35.3519 34.5186ZM44.6559 43.8226C41.1533 47.3373 36.2853 48.2119 33.6666 45.8573C34.1636 45.6492 34.6882 45.5144 35.2239 45.4573C38.4785 45.1911 41.0612 42.6067 41.3253 39.3519C41.4214 37.2716 43.085 35.6062 45.1653 35.5079C46.0684 35.4171 46.9475 35.1632 47.7599 34.7586C48.5506 37.4533 47.4226 41.0559 44.6533 43.8173L44.6559 43.8226Z" fill="#3780FF"/>
</g>
</g>
</g>
<defs>
<clipPath id="clip0_1_468">
<rect width="80" height="80" fill="white" transform="translate(0 0.5)"/>
</clipPath>
<clipPath id="clip1_1_468">
<rect width="80" height="80" fill="white" transform="translate(0 0.5)"/>
</clipPath>
<clipPath id="clip2_1_468">
<rect width="80" height="80" fill="white" transform="translate(0 0.5)"/>
</clipPath>
</defs>
</svg>
