<svg width="71" height="71" viewBox="0 0 71 71" fill="none" xmlns="http://www.w3.org/2000/svg">
<g clip-path="url(#clip0_1_91)">
<path d="M48.4894 48.5936C47.8375 42.2544 44.7664 36.0551 39.8446 31.1334C29.5942 20.8917 14.4001 19.413 5.97407 27.8522C-2.45637 36.2826 -0.986404 51.4767 9.25963 61.7227C14.1814 66.6445 20.3806 69.7157 26.7199 70.3719C27.5642 70.455 28.3998 70.4988 29.2179 70.4988C34.6691 70.4988 39.5383 68.5869 43.1258 64.9995C47.2557 60.874 49.1631 55.0466 48.4894 48.5936ZM33.4966 53.7954C30.1367 51.2317 26.5011 50.2167 22.5462 49.1361C12.5977 46.4062 7.65841 38.107 6.49906 28.3772C9.30338 31.759 11.3727 35.6176 14.8158 38.4482C18.4819 41.4625 22.5156 42.5606 26.9517 43.8468C36.6859 46.673 41.4983 54.9022 42.6095 64.4789C39.569 60.8259 37.3378 56.7309 33.4966 53.7954Z" fill="#3780FF"/>
<path d="M65.0265 5.97766C56.6005 -2.45716 41.4064 -0.982817 31.156 9.25884C28.4261 11.9888 26.3349 15.13 24.843 18.4505C29.7429 19.2949 34.4897 21.3423 38.6983 24.4179C40.2996 23.4117 42.0451 22.5498 44.0532 21.9679C48.485 20.6817 52.523 19.588 56.1892 16.5693C59.6279 13.7387 61.6972 9.8757 64.5059 6.49827C63.3509 16.2281 58.4073 24.5273 48.4588 27.2572C46.7788 27.7166 45.1688 28.1891 43.5982 28.749C48.3406 33.7452 51.4643 39.8307 52.5537 46.1612C55.8742 44.665 59.0198 42.5781 61.7497 39.8482C71.9826 29.6022 73.457 14.4081 65.0265 5.97766Z" fill="#3780FF"/>
</g>
<defs>
<clipPath id="clip0_1_91">
<rect width="70" height="70" fill="white" transform="translate(0.5 0.5)"/>
</clipPath>
</defs>
</svg>
